<?xml version="1.0" standalone="no"?>
<!DOCTYPE svg PUBLIC "-//W3C//DTD SVG 20010904//EN"
 "http://www.w3.org/TR/2001/REC-SVG-20010904/DTD/svg10.dtd">
<svg version="1.0" xmlns="http://www.w3.org/2000/svg"
 width="420.000000pt" height="420.000000pt" viewBox="0 0 420.000000 420.000000"
 preserveAspectRatio="xMidYMid meet">
<metadata>
Created by potrace 1.14, written by Peter Selinger 2001-2017
</metadata>
<g transform="translate(0.000000,420.000000) scale(0.100000,-0.100000)"
fill="#000000" stroke="none">
<path d="M1708 3412 c-259 -52 -494 -220 -680 -488 -21 -30 -35 -54 -30 -54 4
0 2 -4 -4 -8 -9 -6 -53 -93 -84 -167 -8 -17 -21 -58 -25 -75 -1 -3 -7 -25 -15
-50 -7 -25 -15 -49 -16 -55 -9 -34 -16 -63 -19 -80 -1 -12 -10 -43 -20 -70 -9
-28 -18 -57 -20 -65 -6 -21 -34 -101 -44 -125 -8 -17 -19 -47 -24 -65 0 -3
-16 -34 -35 -70 -34 -66 -81 -172 -87 -200 -2 -8 -8 -28 -14 -43 -6 -15 -13
-42 -16 -60 -3 -18 -8 -45 -11 -62 -18 -102 5 -312 38 -352 6 -7 8 -13 5 -13
-3 0 12 -45 34 -100 41 -107 91 -193 138 -239 16 -16 37 -42 45 -57 9 -16 27
-47 41 -70 21 -36 24 -57 30 -187 6 -130 5 -147 -9 -153 -22 -8 -20 -37 4 -59
11 -10 20 -22 20 -26 0 -5 -23 -56 -51 -114 -28 -58 -52 -114 -54 -123 -2 -9
-4 -18 -5 -19 -2 -2 -3 -6 -5 -10 -1 -5 -4 -15 -8 -23 -15 -38 -34 -120 -29
-125 8 -8 2662 -6 2662 3 -1 19 -61 196 -71 208 -6 8 -9 14 -5 14 4 0 0 13 -9
30 -8 16 -14 31 -13 32 2 2 -7 19 -18 38 -15 25 -21 49 -19 85 3 64 0 57 34
96 23 26 27 37 20 51 -6 10 -18 17 -27 16 -19 -3 -19 -5 -9 213 l5 116 91 91
c50 50 91 95 91 100 0 5 11 22 24 37 14 16 23 32 20 37 -3 4 -1 8 4 8 8 0 15
13 26 50 1 3 4 10 8 16 14 21 21 72 23 174 3 95 -7 166 -40 300 -7 30 -54 160
-62 172 -4 7 -8 18 -9 25 -1 6 -34 78 -74 160 -40 81 -103 236 -140 343 -96
275 -94 270 -144 371 -123 247 -309 447 -501 540 -27 13 -52 24 -55 25 -3 0
-14 4 -25 8 -11 4 -33 13 -50 19 -16 6 -68 11 -115 11 -68 -1 -100 -6 -160
-29 -86 -31 -150 -43 -150 -26 0 6 -7 11 -15 11 -8 0 -15 4 -15 8 0 7 -75 42
-104 49 -86 19 -152 21 -228 5z"/>
</g>
</svg>
