<?xml version="1.0" standalone="no"?>
<!DOCTYPE svg PUBLIC "-//W3C//DTD SVG 20010904//EN"
 "http://www.w3.org/TR/2001/REC-SVG-20010904/DTD/svg10.dtd">
<svg version="1.0" xmlns="http://www.w3.org/2000/svg"
 width="736.000000pt" height="736.000000pt" viewBox="0 0 736.000000 736.000000"
 preserveAspectRatio="xMidYMid meet">
<metadata>
Created by potrace 1.14, written by Peter Selinger 2001-2017
</metadata>
<g transform="translate(0.000000,736.000000) scale(0.100000,-0.100000)"
fill="#000000" stroke="none">
<path d="M0 3680 l0 -3680 3680 0 3680 0 0 3680 0 3680 -3680 0 -3680 0 0
-3680z m3953 3044 c273 -29 506 -82 515 -117 4 -14 7 -16 13 -5 7 10 17 9 49
-9 22 -12 38 -18 35 -13 -11 17 127 -43 143 -63 7 -8 34 -22 60 -32 26 -10 52
-21 58 -26 5 -4 20 -6 31 -3 23 6 93 -22 93 -38 0 -5 4 -7 9 -4 7 5 46 -13
172 -79 10 -5 19 -13 19 -17 0 -5 5 -8 11 -8 6 0 57 -31 114 -69 56 -38 112
-72 124 -76 11 -3 21 -11 21 -16 0 -5 6 -9 13 -9 7 0 23 -14 37 -30 14 -17 50
-50 80 -73 68 -51 134 -121 120 -125 -6 -2 -35 17 -65 43 -30 25 -64 47 -76
48 -12 1 -24 9 -27 19 -2 10 -10 14 -19 11 -8 -3 -19 0 -23 8 -5 7 -19 14 -32
14 -13 0 -23 6 -23 15 0 14 -31 27 -68 29 -14 1 -16 -4 -11 -26 4 -16 16 -36
26 -47 17 -16 22 -16 30 -5 8 11 11 11 15 1 8 -21 61 -75 75 -78 7 -1 23 -4
35 -6 25 -5 43 -18 25 -18 -7 0 -12 -7 -12 -15 0 -8 -6 -15 -14 -15 -21 0 -26
-13 -12 -32 11 -15 19 -16 49 -7 21 5 37 15 37 20 0 6 6 9 13 6 6 -2 12 -15
12 -28 0 -21 5 -25 50 -30 28 -3 44 -7 38 -7 -19 -3 -16 -32 2 -32 9 0 20 -11
25 -25 5 -14 24 -31 44 -39 19 -8 40 -25 47 -38 17 -31 40 -48 63 -45 31 3 30
-20 -1 -28 -15 -5 -31 -8 -35 -7 -5 1 -8 -5 -8 -14 0 -8 4 -13 8 -10 4 2 14 1
22 -4 13 -8 12 -12 -5 -24 -18 -13 -18 -15 -3 -21 9 -4 18 -15 21 -26 3 -10
13 -19 22 -19 16 0 97 -57 104 -74 2 -4 7 -3 11 4 11 18 44 4 36 -15 -3 -9 0
-15 9 -15 8 0 15 6 16 13 1 6 5 1 9 -13 5 -15 8 -18 9 -9 1 9 7 19 14 22 13 5
17 -9 19 -66 0 -20 4 -25 11 -18 17 17 27 13 27 -11 0 -18 2 -20 9 -9 11 17
53 23 48 7 -3 -6 -10 -10 -16 -8 -6 1 -11 -5 -11 -13 0 -8 -4 -15 -10 -15 -5
0 -10 -7 -10 -15 0 -8 5 -15 10 -15 6 0 10 7 10 15 0 8 5 15 10 15 6 0 10 -7
10 -16 0 -8 7 -23 16 -32 15 -15 16 -14 10 8 l-7 25 20 -25 c12 -14 24 -35 27
-47 3 -13 10 -23 16 -23 10 0 1 39 -13 55 -5 5 -9 14 -9 20 0 5 14 -10 30 -35
17 -26 27 -52 24 -62 -4 -12 -1 -16 8 -13 28 11 260 -439 236 -459 -1 -2 -53
-39 -115 -83 l-112 -80 -113 111 c-137 135 -174 168 -303 272 -104 84 -314
230 -400 279 -152 86 -211 117 -315 167 -63 31 -146 69 -185 86 -126 54 -445
157 -445 143 0 -3 35 -17 78 -30 192 -58 507 -186 662 -270 41 -23 86 -46 100
-53 83 -42 355 -223 442 -295 70 -58 32 -35 -94 56 -122 88 -148 105 -241 158
-27 16 -64 38 -83 50 -35 23 -181 98 -244 126 -19 9 -80 36 -135 60 -517 228
-1075 328 -1660 298 -293 -16 -480 -41 -715 -97 -174 -41 -369 -98 -425 -124
-11 -5 -69 -28 -128 -50 -283 -106 -665 -334 -913 -546 -124 -106 -320 -299
-406 -402 -40 -48 -75 -89 -78 -92 -3 -3 -23 -29 -45 -57 -21 -29 -41 -51 -43
-48 -6 5 54 86 131 178 363 435 796 754 1342 988 185 80 542 183 764 221 39 7
71 16 71 20 0 10 -3 10 -80 -7 -36 -8 -101 -22 -145 -31 -342 -67 -788 -243
-1104 -437 -353 -214 -680 -500 -904 -790 -33 -42 -62 -75 -64 -73 -8 8 49
202 98 334 28 73 82 199 122 280 40 81 80 165 89 187 10 22 33 56 51 75 18 19
48 58 67 85 43 66 71 96 81 89 5 -3 23 12 41 32 18 21 39 43 46 51 28 28 132
158 132 166 0 4 7 7 15 7 8 0 15 6 15 13 0 8 9 22 20 32 11 10 17 21 15 26 -3
4 16 20 41 35 35 21 43 29 30 33 -26 10 231 255 389 372 108 79 220 149 232
144 7 -2 12 0 10 5 -1 5 32 30 73 56 79 49 390 204 409 204 7 0 22 7 35 15 55
36 331 114 532 150 255 46 508 56 747 29z m1769 -841 c10 -9 18 -22 18 -30 0
-18 -25 -17 -44 3 -35 34 -10 60 26 27z m68 -102 c0 -5 -7 -12 -16 -15 -14 -5
-15 -4 -4 9 14 17 20 19 20 6z m64 -56 c-4 -8 -8 -15 -10 -15 -2 0 -4 7 -4 15
0 8 4 15 10 15 5 0 7 -7 4 -15z m161 -285 c3 -5 1 -10 -4 -10 -6 0 -11 5 -11
10 0 6 2 10 4 10 3 0 8 -4 11 -10z m79 -6 c9 -24 2 -26 -12 -4 -7 11 -8 20 -3
20 5 0 12 -7 15 -16z m60 -49 c-7 -16 -24 -21 -24 -6 0 8 7 13 27 20 1 1 0 -6
-3 -14z m21 -26 c-4 -5 -14 -8 -23 -8 -15 1 -15 2 1 6 9 2 14 9 11 15 -4 7 -2
8 5 4 6 -4 9 -12 6 -17z m85 -111 c0 -5 -8 0 -18 10 -11 9 -17 21 -14 25 4 8
31 -22 32 -35z m-1940 11 c63 -5 167 -21 230 -34 113 -23 330 -99 330 -115 0
-4 -12 -11 -27 -15 -103 -25 -283 -218 -283 -302 0 -28 52 -108 80 -123 48
-25 75 -13 182 81 107 95 146 119 197 119 54 0 103 -85 150 -259 29 -106 38
-121 75 -121 l29 0 -7 -193 c-5 -127 -4 -201 3 -220 6 -15 67 -85 136 -157 68
-71 140 -153 158 -182 47 -72 97 -174 97 -194 0 -10 3 -14 6 -11 14 14 -30
121 -80 194 -86 127 -81 118 -68 147 6 15 22 30 34 35 27 10 142 82 393 245
144 94 197 134 265 205 47 48 123 114 168 147 46 32 107 76 135 97 28 20 54
37 58 37 11 0 58 -141 93 -280 113 -447 111 -939 -3 -1359 l-12 -43 -222 5
c-188 4 -244 9 -367 33 -90 17 -190 29 -264 31 l-118 4 6 32 c27 141 29 184
18 298 -6 64 -16 127 -21 140 -7 17 -8 6 -3 -36 4 -33 7 -125 7 -205 0 -121
-4 -158 -23 -225 -82 -281 -261 -460 -522 -519 -64 -15 -65 -15 -85 8 -44 52
-110 61 -150 21 -14 -13 -25 -33 -25 -44 0 -23 16 -23 -205 4 -60 8 -139 17
-175 20 -97 10 -368 52 -510 80 -69 13 -161 27 -205 31 -46 4 -103 16 -135 29
-30 13 -75 26 -100 30 -77 13 -309 82 -455 136 -77 28 -169 62 -205 74 -36 13
-90 35 -122 49 -47 21 -173 66 -185 66 -1 0 -3 -7 -3 -15 0 -27 -80 -93 -123
-100 -22 -4 -35 -10 -30 -14 6 -3 14 -26 18 -51 4 -25 10 -39 12 -32 3 6 9 10
14 6 14 -8 11 13 -6 45 -16 32 -12 41 21 41 13 0 26 5 29 10 4 6 11 7 17 4 6
-4 8 -28 4 -65 -5 -46 -3 -64 8 -81 20 -28 20 -49 1 -42 -9 4 -15 0 -15 -10 0
-9 -6 -16 -13 -16 -23 0 -37 23 -37 60 0 25 -3 31 -10 20 -5 -8 -12 -11 -16
-7 -4 4 -12 -1 -18 -12 -39 -66 -69 -100 -102 -116 -20 -9 -56 -32 -80 -50
-29 -22 -63 -37 -101 -44 -32 -6 -82 -18 -112 -27 -67 -20 -195 -12 -261 16
-25 10 -56 21 -70 24 -64 14 -85 40 -159 190 -65 135 -93 179 -77 124 7 -24
28 -192 30 -242 1 -36 -14 -42 -42 -19 -21 17 -21 20 -6 50 15 30 15 36 -10
110 -14 43 -26 88 -26 101 0 12 -6 22 -14 22 -9 0 -12 -7 -9 -20 7 -26 -16
-26 -59 0 -36 22 -53 26 -43 10 7 -11 88 -50 104 -50 10 0 44 -90 37 -98 -2
-2 -13 1 -24 7 -11 6 -22 8 -24 5 -3 -2 -25 4 -49 14 -39 17 -48 27 -71 81
-27 62 -27 62 -5 56 19 -6 17 -2 -9 22 -36 32 -47 52 -76 131 -55 151 -69 184
-62 152 3 -19 7 -44 8 -56 0 -11 6 -27 13 -35 16 -20 25 -59 28 -132 2 -34 4
-70 5 -81 1 -23 -5 -30 -19 -21 -6 3 -11 24 -11 46 0 28 -4 39 -15 39 -18 0
-38 36 -29 52 5 7 11 5 21 -7 19 -27 18 0 -3 56 -9 24 -16 53 -16 63 1 11 -8
26 -19 34 -11 8 -24 24 -29 36 -8 19 -9 19 -9 -7 -1 -25 -4 -27 -28 -21 -16 4
-36 13 -45 22 -20 17 -51 95 -74 187 -9 36 -22 65 -29 65 -21 0 -38 46 -31 87
16 93 17 95 38 90 15 -4 18 -2 13 11 -4 9 -12 31 -18 47 -14 41 -15 42 -33 17
-8 -12 -22 -22 -31 -22 -14 0 -15 11 -9 78 8 88 28 124 45 79 6 -15 13 -27 15
-27 2 0 10 17 16 38 14 42 68 132 80 132 12 0 19 -54 9 -67 -7 -7 -6 -14 1
-18 8 -5 6 -12 -5 -25 -12 -13 -15 -33 -13 -71 3 -51 5 -54 30 -57 16 -2 28
-9 28 -16 0 -8 7 -19 15 -26 8 -7 18 -30 21 -51 8 -50 19 -50 20 -1 0 20 10
57 22 81 12 25 22 50 22 56 0 25 62 135 76 135 21 0 56 -61 43 -76 -7 -8 -6
-14 1 -19 14 -9 15 -8 33 38 18 41 43 49 70 19 14 -15 15 -41 9 -212 l-7 -195
-41 41 c-53 54 -69 109 -61 217 3 45 3 75 0 67 -3 -8 -23 -30 -44 -49 -34 -30
-39 -40 -39 -76 0 -44 18 -70 55 -77 11 -2 26 -16 33 -31 8 -16 35 -50 61 -76
45 -45 48 -52 55 -116 4 -38 3 -72 -1 -76 -5 -5 -37 5 -71 21 -34 16 -62 27
-62 25 0 -10 126 -70 142 -67 12 2 18 -3 18 -17 0 -11 4 -22 8 -25 5 -3 0 32
-10 77 -28 126 -34 344 -14 517 30 255 37 279 111 390 35 54 70 102 76 106 10
6 8 -25 -7 -78 -3 -9 0 -19 5 -22 6 -4 43 43 83 104 39 60 76 110 80 110 4 0
8 -35 8 -78 0 -52 5 -85 14 -97 14 -19 15 -19 25 5 6 14 22 66 37 115 15 50
30 94 34 98 4 4 17 -27 29 -70 13 -43 29 -92 37 -109 14 -29 13 -34 -5 -65
-12 -19 -21 -43 -21 -54 0 -13 7 -7 21 20 12 22 34 54 51 71 16 18 26 34 21
37 -4 3 -7 45 -5 94 l4 88 30 -35 c77 -88 172 -180 182 -177 6 2 10 20 8 41
-2 20 2 36 7 36 5 0 35 -52 67 -116 56 -115 61 -140 40 -194 -4 -10 2 -19 16
-25 42 -18 84 -96 107 -199 16 -66 27 -96 37 -96 8 0 14 2 14 4 0 35 62 405
90 535 31 148 43 182 83 242 43 65 214 249 230 249 7 -1 21 -20 32 -43 21 -45
74 -87 109 -87 34 0 116 57 218 151 218 201 337 279 427 279 39 0 124 -25 152
-44 16 -10 124 -106 192 -170 58 -54 145 -106 178 -106 42 0 113 35 139 67 50
63 6 140 -188 330 -73 72 -109 115 -101 118 13 4 55 8 144 13 17 1 82 -3 145
-9z m-2420 -282 c0 -14 -65 -111 -86 -127 -17 -15 -84 -41 -84 -33 0 2 12 15
26 30 31 31 25 39 -15 19 -31 -16 -55 -22 -36 -8 6 4 22 23 35 42 13 19 41 56
63 82 l38 48 30 -22 c16 -12 29 -26 29 -31z m30 -25 c0 -5 -14 -30 -32 -57
-40 -60 -50 -42 -11 20 26 42 43 56 43 37z m4023 -123 l32 -32 -32 22 c-32 22
-50 41 -38 41 3 0 20 -14 38 -31z m-3563 -476 c0 -10 -5 -25 -10 -33 -7 -11
-10 -7 -10 18 0 17 5 32 10 32 6 0 10 -8 10 -17z m-35 -13 c3 -5 1 -10 -4 -10
-6 0 -11 5 -11 10 0 6 2 10 4 10 3 0 8 -4 11 -10z m-32 -73 c3 -7 -3 -19 -14
-25 -17 -11 -18 -10 -7 13 13 29 14 30 21 12z m15 -51 c-17 -46 -23 -55 -29
-40 -4 11 -8 26 -8 34 -1 13 0 13 9 0 8 -13 10 -13 14 0 21 59 27 72 31 68 2
-2 -5 -30 -17 -62z m3016 -181 c3 -8 1 -15 -4 -15 -6 0 -10 7 -10 15 0 8 2 15
4 15 2 0 6 -7 10 -15z m-4492 -50 c-2 -14 -8 -25 -13 -25 -10 0 -12 21 -3 44
9 24 22 10 16 -19z m14 -577 c-10 -49 -26 -59 -26 -17 0 36 6 49 23 49 5 0 7
-14 3 -32z m-6 -94 c0 -8 -7 -14 -15 -14 -15 0 -21 21 -9 33 10 9 24 -2 24
-19z m127 -210 c-3 -3 -12 -4 -19 -1 -8 3 -5 6 6 6 11 1 17 -2 13 -5z m106
-146 c25 -41 29 -79 10 -121 -11 -26 -13 -41 -6 -48 15 -15 41 4 76 52 28 41
35 77 16 96 -6 6 -9 17 -6 25 4 11 21 -21 83 -159 13 -30 61 -63 90 -63 23 0
74 -81 68 -107 -7 -27 11 -54 32 -46 8 3 14 0 14 -6 0 -6 7 -11 15 -11 19 0
19 -32 1 -83 -19 -52 -3 -55 34 -5 41 56 45 79 27 136 -21 66 -31 122 -21 122
9 0 21 -17 55 -77 103 -183 139 -223 202 -223 56 0 83 -15 117 -65 27 -39 34
-44 47 -33 12 10 13 13 2 16 -22 7 -59 44 -59 59 0 8 13 14 35 15 19 1 43 2
53 2 12 1 16 -6 14 -23 -1 -14 2 -27 7 -31 11 -6 31 -86 24 -94 -2 -2 -18 0
-34 4 -26 8 -29 6 -29 -16 0 -13 5 -24 10 -24 6 0 10 7 10 16 0 11 6 14 23 8
12 -3 24 -8 26 -10 5 -5 -57 -134 -65 -134 -7 0 1 67 12 94 3 9 2 16 -4 16
-12 0 -37 -115 -27 -130 11 -18 31 4 65 73 35 70 35 71 14 177 -21 102 -18
105 103 105 l86 0 19 -65 c10 -36 18 -78 18 -94 0 -36 29 -80 82 -123 74 -60
84 -34 27 68 -43 79 -45 85 -36 176 5 43 4 49 -3 23 -4 -18 -16 -40 -26 -47
-16 -12 -16 -13 -1 -13 19 0 21 -8 7 -44 -5 -14 -5 -28 0 -31 14 -9 82 -136
76 -143 -4 -3 -29 16 -57 44 -39 38 -49 54 -44 72 3 12 1 22 -4 22 -12 0 -23
62 -12 73 5 5 1 17 -10 28 -10 10 -19 30 -19 43 0 24 24 36 82 41 27 2 98 54
107 78 4 12 11 53 15 91 7 69 25 125 26 80 0 -12 7 -27 15 -34 8 -7 15 -19 15
-26 0 -18 25 -18 44 1 22 22 41 18 57 -12 18 -35 41 -56 101 -92 27 -15 46
-30 44 -32 -9 -9 143 -9 167 0 15 6 29 21 33 36 3 14 7 25 9 25 1 0 18 -15 37
-32 37 -35 168 -117 148 -93 -18 21 12 20 86 -5 103 -33 502 -47 617 -20 23 5
66 10 95 10 43 0 71 9 144 45 88 43 102 46 157 29 11 -4 11 -7 0 -22 -12 -15
-11 -15 8 1 60 51 108 -36 100 -180 -6 -97 -31 -157 -93 -221 -23 -23 -36 -42
-28 -42 22 0 91 95 113 156 26 69 29 181 8 241 -9 23 -12 45 -8 47 4 3 113 -8
242 -25 129 -16 251 -29 272 -29 21 0 55 -9 77 -20 52 -27 92 -25 127 4 15 13
64 34 108 46 119 33 217 84 298 153 l72 62 142 -4 142 -3 27 28 c74 79 123
147 140 193 20 57 20 57 114 37 36 -8 89 -17 118 -21 28 -4 52 -12 53 -18 1
-7 2 -27 4 -44 1 -18 10 -44 19 -59 13 -18 14 -25 4 -23 -29 4 -42 -1 -31 -12
11 -11 66 -2 58 11 -2 4 8 5 23 2 29 -6 52 -24 52 -41 0 -6 9 -11 20 -11 11 0
20 -4 20 -10 0 -5 -9 -10 -19 -10 -25 0 -30 -10 -21 -35 7 -19 7 -19 14 3 9
27 22 28 35 3 12 -21 5 -31 -21 -31 -10 0 -18 -4 -18 -9 0 -5 -3 -18 -7 -28
-6 -16 -5 -16 10 -4 10 8 20 12 22 9 10 -10 -7 -38 -23 -38 -13 0 -14 -2 -3
-12 11 -10 14 -10 18 0 3 6 16 12 29 12 28 0 32 15 8 28 -11 6 -14 14 -9 22 6
10 11 9 22 -5 19 -27 16 -40 -16 -75 -18 -20 -31 -28 -36 -21 -8 14 -25 5 -25
-13 0 -23 63 -14 75 10 6 11 16 19 22 17 9 -3 5 -17 -12 -44 -14 -21 -25 -43
-25 -49 0 -14 -67 -137 -140 -256 -24 -38 -57 -94 -75 -124 -18 -30 -45 -66
-60 -80 -15 -14 -52 -56 -83 -94 -48 -60 -186 -208 -322 -346 -49 -50 -203
-187 -236 -210 -11 -8 -26 -25 -33 -37 -6 -13 -16 -23 -22 -23 -6 0 -7 5 -4
10 3 6 1 10 -5 10 -7 0 -9 -7 -6 -15 3 -10 -1 -18 -12 -22 -9 -4 -28 -18 -42
-31 -31 -29 -350 -242 -407 -271 -23 -11 -66 -30 -95 -42 -29 -11 -66 -27 -83
-35 -52 -24 -113 -43 -119 -37 -3 4 -6 2 -6 -4 0 -25 -255 -101 -490 -147
-181 -35 -452 -60 -585 -53 -206 11 -441 42 -595 78 -83 20 -345 104 -425 137
-96 39 -408 203 -490 256 -50 33 -112 72 -139 88 -76 45 -283 229 -517 460
-194 191 -289 303 -411 483 -70 104 -209 368 -207 395 0 10 2 11 6 3 6 -17 23
-16 23 1 0 9 15 17 40 21 41 7 47 17 41 78 -3 21 7 22 31 0 17 -15 18 -15 18
1 0 26 -42 57 -58 44 -17 -15 -29 -1 -16 19 6 10 24 17 45 17 27 1 35 5 37 24
2 12 8 22 13 22 5 0 9 7 9 15 0 16 -39 21 -41 5 -1 -5 -2 -14 -3 -20 0 -5 -4
-10 -8 -10 -5 0 -20 0 -34 0 -20 0 -24 3 -16 13 6 7 12 35 15 62 l3 50 2 -53
c1 -33 6 -51 12 -47 6 3 10 15 10 26 0 14 7 19 30 19 23 0 30 5 30 19 0 11 -5
23 -11 27 -6 3 -7 9 -2 13 18 13 33 63 27 88 -7 26 -7 26 12 7 11 -10 27 -31
37 -46z m-72 -7 c-31 -31 -45 -25 -19 9 13 18 26 26 31 21 5 -5 1 -17 -12 -30z
m1585 24 c-3 -9 -15 -52 -26 -97 -11 -45 -23 -84 -26 -87 -3 -3 -4 27 -3 66 1
51 8 80 21 102 21 32 45 43 34 16z m3802 -52 c-21 -2 -57 -2 -80 0 -24 2 -7 4
37 4 44 0 63 -2 43 -4z m-83 -53 c8 7 15 7 19 1 4 -5 2 -13 -4 -16 -15 -9 -40
2 -39 17 0 10 2 10 6 0 4 -9 8 -10 18 -2z m70 -32 c-1 -14 -9 -24 -21 -26 -15
-3 -17 -1 -6 9 6 7 12 21 12 32 0 10 4 16 8 13 5 -3 8 -15 7 -28z m-4871 -69
c-11 -18 -24 -8 -24 19 1 26 1 26 15 8 8 -10 12 -23 9 -27z m5029 26 c-3 -9
-8 -14 -10 -11 -3 3 -2 9 2 15 9 16 15 13 8 -4z m-5097 -86 c3 -6 1 -16 -6
-22 -9 -9 -16 -6 -31 12 -10 12 -16 27 -13 32 6 10 39 -5 50 -22z m5060 -26
c-4 -39 -3 -51 3 -38 6 13 10 15 10 5 0 -8 -9 -31 -19 -50 l-20 -35 6 69 c3
38 7 73 10 78 3 4 0 8 -6 8 -6 0 -8 5 -5 10 3 6 11 10 17 10 7 0 8 -20 4 -57z
m-5723 27 c-3 -12 -8 -19 -11 -16 -5 6 5 36 12 36 2 0 2 -9 -1 -20z m147 -40
c0 -5 -4 -10 -10 -10 -5 0 -10 5 -10 10 0 6 5 10 10 10 6 0 10 -4 10 -10z
m-76 -61 c-3 -5 -10 -7 -15 -3 -5 3 -7 10 -3 15 3 5 10 7 15 3 5 -3 7 -10 3
-15z m46 11 c0 -5 -4 -10 -10 -10 -5 0 -10 5 -10 10 0 6 5 10 10 10 6 0 10 -4
10 -10z m630 -40 c0 -5 -7 -10 -15 -10 -8 0 -15 5 -15 10 0 6 7 10 15 10 8 0
15 -4 15 -10z m3550 -1594 c0 -2 -7 -7 -16 -10 -8 -3 -12 -2 -9 4 6 10 25 14
25 6z"/>
<path d="M4855 6440 c3 -5 10 -10 16 -10 5 0 9 5 9 10 0 6 -7 10 -16 10 -8 0
-12 -4 -9 -10z"/>
<path d="M2236 6304 c-5 -14 -4 -15 9 -4 17 14 19 20 6 20 -5 0 -12 -7 -15
-16z"/>
<path d="M5276 6161 c-8 -12 4 -41 16 -41 6 0 5 6 -2 15 -6 8 -9 19 -5 25 3 5
4 10 1 10 -3 0 -7 -4 -10 -9z"/>
<path d="M5400 6130 c0 -5 5 -10 11 -10 5 0 7 5 4 10 -3 6 -8 10 -11 10 -2 0
-4 -4 -4 -10z"/>
<path d="M5420 6096 c0 -2 7 -7 16 -10 8 -3 12 -2 9 4 -6 10 -25 14 -25 6z"/>
<path d="M3370 5685 c8 -2 123 -6 255 -9 132 -4 259 -8 283 -10 111 -12 241
-27 277 -33 22 -3 37 -3 34 1 -3 3 -68 16 -145 27 -110 16 -200 22 -429 24
-159 2 -283 2 -275 0z"/>
<path d="M4231 5626 c7 -7 222 -46 227 -41 2 2 -9 7 -24 10 -16 3 -57 13 -91
21 -59 13 -121 19 -112 10z"/>
<path d="M4500 5572 c8 -5 26 -13 40 -16 17 -5 20 -4 10 2 -8 5 -26 13 -40 16
-17 5 -20 4 -10 -2z"/>
<path d="M6360 5040 c0 -6 7 -10 15 -10 8 0 15 2 15 4 0 2 -7 6 -15 10 -8 3
-15 1 -15 -4z"/>
<path d="M5690 5881 c0 -5 7 -11 14 -14 10 -4 13 -1 9 9 -6 15 -23 19 -23 5z"/>
<path d="M3399 4771 c-129 -44 -235 -113 -360 -233 -97 -94 -210 -240 -196
-255 3 -2 25 26 50 64 52 80 208 237 296 298 84 59 192 110 276 130 54 14 94
16 175 12 249 -14 464 -145 650 -394 83 -111 98 -129 80 -93 -32 60 -109 161
-179 233 -182 188 -358 267 -590 267 -101 0 -127 -4 -202 -29z"/>
<path d="M3423 4502 c-230 -63 -378 -175 -466 -353 -56 -114 -77 -196 -77
-310 0 -152 22 -222 104 -331 86 -116 232 -205 383 -234 315 -60 627 75 777
336 57 99 66 128 72 235 8 121 -12 213 -68 311 -109 192 -256 307 -446 350
-117 27 -167 26 -279 -4z m295 -333 c75 -37 117 -90 133 -167 28 -139 -43
-307 -154 -363 -59 -31 -171 -24 -249 14 -171 84 -210 196 -127 364 42 88 113
141 229 172 63 17 105 12 168 -20z"/>
<path d="M4940 4493 c-61 -40 -150 -149 -150 -183 0 -8 16 13 35 46 38 63 79
104 135 134 19 11 28 19 20 19 -8 0 -26 -7 -40 -16z"/>
<path d="M5045 4495 c11 -8 30 -22 43 -32 26 -19 108 -178 118 -228 6 -33 24
-59 24 -36 0 20 -32 107 -64 176 -34 72 -92 135 -124 135 -15 -1 -14 -3 3 -15z"/>
<path d="M2000 4303 c0 -4 13 -15 29 -24 16 -10 39 -39 54 -70 15 -30 26 -46
27 -36 0 25 -28 79 -54 100 -30 25 -56 39 -56 30z"/>
<path d="M4829 4268 c-83 -59 -109 -104 -148 -251 -57 -216 -19 -432 88 -504
49 -33 160 -33 215 0 95 58 131 175 131 423 l0 161 -40 78 c-48 94 -76 117
-147 122 -48 4 -58 1 -99 -29z m139 -278 c21 -41 11 -167 -19 -221 -30 -54
-55 -57 -80 -9 -36 66 -19 212 29 248 24 18 54 11 70 -18z"/>
<path d="M1650 4273 c-35 -14 -91 -104 -89 -145 1 -15 7 -5 17 27 10 29 33 66
55 87 20 21 36 38 35 37 -2 0 -10 -3 -18 -6z"/>
<path d="M1709 4239 c17 -17 34 -41 37 -55 3 -13 10 -24 14 -24 15 0 -1 37
-32 74 -16 20 -34 36 -39 36 -6 0 3 -14 20 -31z"/>
<path d="M1890 4060 c0 -11 5 -20 10 -20 6 0 10 9 10 20 0 11 -4 20 -10 20 -5
0 -10 -9 -10 -20z"/>
<path d="M1762 4050 c0 -14 2 -19 5 -12 2 6 2 18 0 25 -3 6 -5 1 -5 -13z"/>
<path d="M2085 3879 c-4 -6 -5 -12 -2 -15 2 -3 7 2 10 11 7 17 1 20 -8 4z"/>
<path d="M2052 3818 c-23 -38 -54 -110 -49 -114 2 -2 20 30 40 71 39 78 43 98
9 43z"/>
<path d="M1170 3804 l-34 -24 27 0 c16 0 26 4 22 9 -3 6 3 14 12 20 10 5 16
12 13 14 -3 3 -21 -6 -40 -19z"/>
<path d="M1120 3724 c-30 -48 -21 -51 12 -3 15 21 24 39 19 39 -5 0 -19 -16
-31 -36z"/>
<path d="M985 3668 c-19 -87 -22 -180 -8 -209 8 -16 19 -29 24 -29 14 0 11 16
-6 30 -18 15 -20 90 -4 174 11 62 7 89 -6 34z"/>
<path d="M1972 3628 c-57 -178 -75 -291 -61 -397 15 -127 34 -167 107 -233 49
-44 71 -51 147 -46 58 3 63 1 43 -21 -14 -14 22 7 82 48 19 13 26 20 15 16
-93 -37 -179 -44 -231 -19 -54 26 -121 113 -139 180 -30 117 -16 269 42 447
14 43 23 81 20 83 -3 3 -14 -23 -25 -58z"/>
<path d="M904 3597 c3 -10 6 -23 6 -28 0 -5 5 -9 10 -9 14 0 12 13 -6 36 -14
17 -15 17 -10 1z"/>
<path d="M910 3441 c0 -5 7 -12 16 -15 14 -5 15 -4 4 9 -14 17 -20 19 -20 6z"/>
<path d="M1090 3443 c0 -14 22 -38 53 -57 46 -28 41 -12 -8 28 -25 21 -45 33
-45 29z"/>
<path d="M1041 3323 c1 -78 6 -74 12 10 2 31 0 57 -5 57 -4 0 -8 -30 -7 -67z"/>
<path d="M1206 3217 c3 -10 9 -15 12 -12 3 3 0 11 -7 18 -10 9 -11 8 -5 -6z"/>
<path d="M1390 3211 c0 -5 5 -13 10 -16 6 -3 10 -2 10 4 0 5 -4 13 -10 16 -5
3 -10 2 -10 -4z"/>
<path d="M1322 3065 c0 -16 2 -22 5 -12 2 9 2 23 0 30 -3 6 -5 -1 -5 -18z"/>
<path d="M1456 3077 c3 -10 9 -15 12 -12 3 3 0 11 -7 18 -10 9 -11 8 -5 -6z"/>
<path d="M2385 3049 c-65 -53 -66 -54 -29 -36 17 9 37 23 44 32 30 36 47 37
110 5 81 -41 89 -38 12 5 -34 19 -68 35 -75 35 -7 0 -35 -18 -62 -41z"/>
<path d="M1490 3013 c0 -6 8 -17 18 -24 16 -13 16 -13 2 6 -8 11 -16 22 -17
24 -2 2 -3 0 -3 -6z"/>
<path d="M1332 2980 c0 -19 2 -27 5 -17 2 9 2 25 0 35 -3 9 -5 1 -5 -18z"/>
<path d="M1540 2945 c13 -14 25 -25 27 -25 2 0 -4 11 -13 25 -9 14 -21 25 -27
25 -6 0 0 -11 13 -25z"/>
<path d="M2164 2898 l-19 -23 23 19 c21 18 27 26 19 26 -2 0 -12 -10 -23 -22z"/>
<path d="M1608 2877 c7 -8 39 -28 70 -44 52 -26 66 -28 167 -28 61 0 122 3
137 7 23 7 25 11 19 35 -10 38 -51 52 -85 29 -32 -20 -33 -43 -3 -57 15 -7 -9
-8 -82 -4 -96 5 -110 8 -170 41 -36 20 -59 29 -53 21z"/>
<path d="M1060 2942 c0 -6 7 -13 16 -16 8 -3 12 -10 9 -16 -3 -5 -1 -10 5 -10
18 0 7 44 -12 48 -10 2 -18 -1 -18 -6z"/>
<path d="M6211 2918 c-1 -10 5 -18 13 -18 9 0 16 -13 19 -32 4 -32 4 -32 5 5
2 26 -2 37 -12 37 -8 0 -17 6 -19 13 -3 7 -6 5 -6 -5z"/>
<path d="M1050 2869 c0 -5 5 -7 10 -4 6 3 10 8 10 11 0 2 -4 4 -10 4 -5 0 -10
-5 -10 -11z"/>
<path d="M1080 2850 c0 -5 5 -10 10 -10 6 0 10 5 10 10 0 6 -4 10 -10 10 -5 0
-10 -4 -10 -10z"/>
<path d="M1040 2770 c0 -5 5 -10 11 -10 5 0 7 5 4 10 -3 6 -8 10 -11 10 -2 0
-4 -4 -4 -10z"/>
<path d="M6351 2766 c-10 -12 -8 -17 8 -25 22 -12 34 -1 25 23 -8 20 -18 20
-33 2z"/>
<path d="M998 2723 c7 -3 16 -2 19 1 4 3 -2 6 -13 5 -11 0 -14 -3 -6 -6z"/>
<path d="M6352 2678 c-8 -8 -7 -15 6 -24 24 -18 32 -17 32 5 0 23 -23 34 -38
19z"/>
<path d="M2591 2612 c-17 -31 -13 -40 5 -14 9 13 14 26 11 29 -3 2 -10 -4 -16
-15z"/>
<path d="M900 2560 c-12 -7 -12 -10 3 -16 21 -8 29 -3 19 13 -5 8 -13 9 -22 3z"/>
<path d="M2559 2548 c-6 -12 -17 -26 -23 -30 -8 -5 -7 -8 1 -8 14 0 48 48 40
56 -3 3 -11 -5 -18 -18z"/>
<path d="M876 2525 c4 -8 10 -15 15 -15 5 0 9 7 9 15 0 8 -7 15 -15 15 -9 0
-12 -6 -9 -15z"/>
<path d="M2440 2520 c-24 -18 -24 -19 -6 -39 15 -17 16 -23 6 -36 -9 -11 -9
-15 -1 -15 7 0 11 -10 9 -22 -3 -21 1 -23 49 -23 39 0 55 -5 65 -18 12 -15 16
-16 25 -5 14 19 23 58 12 58 -5 0 -9 -9 -9 -20 0 -11 -4 -20 -10 -20 -5 0 -10
5 -10 11 0 8 -17 10 -50 7 -27 -3 -50 -1 -50 3 0 5 5 9 10 9 6 0 10 5 10 10 0
6 -7 10 -15 10 -8 0 -15 5 -15 10 0 6 7 10 15 10 23 0 18 16 -10 28 -30 14
-34 36 -5 27 11 -4 20 -2 20 4 0 6 8 11 17 11 21 0 12 9 -14 14 -10 2 -30 -4
-43 -14z"/>
<path d="M2675 2496 c-48 -32 -101 -82 -65 -61 24 14 120 87 120 91 0 7 -4 5
-55 -30z"/>
<path d="M4160 2470 c-45 -29 -49 -41 -7 -19 30 16 72 49 61 48 -5 0 -29 -13
-54 -29z"/>
<path d="M900 2479 c0 -5 5 -7 10 -4 6 3 10 8 10 11 0 2 -4 4 -10 4 -5 0 -10
-5 -10 -11z"/>
<path d="M923 2466 c-7 -8 -8 -18 -2 -27 5 -8 9 -11 10 -6 1 4 2 10 3 15 1 4
5 13 9 20 11 16 -5 15 -20 -2z"/>
<path d="M3159 2403 c-15 -70 -59 -138 -94 -147 -14 -4 -25 -11 -25 -17 0 -6
9 -9 20 -6 11 3 21 2 21 -1 1 -4 3 -21 5 -38 6 -48 52 -141 82 -163 21 -16 23
-20 9 -21 -9 0 -26 5 -36 12 -15 9 -32 8 -80 -7 -87 -26 -81 -45 14 -45 58 0
77 4 81 15 7 17 54 21 54 5 0 -5 -6 -10 -12 -10 -7 0 -5 -5 5 -11 9 -6 32 -8
50 -6 l32 3 -32 8 c-27 7 -30 11 -19 22 8 7 33 14 57 15 27 2 51 10 62 21 16
17 16 18 -4 18 -30 0 -98 78 -99 112 0 15 5 39 11 55 6 15 15 50 20 77 5 27
16 57 25 67 14 16 12 19 -28 37 -24 12 -57 30 -75 42 l-31 21 -13 -58z m-29
-402 c0 -13 -26 -21 -66 -21 -38 0 -46 16 -11 23 41 8 77 7 77 -2z"/>
<path d="M941 2404 c0 -11 3 -14 6 -6 3 7 2 16 -1 19 -3 4 -6 -2 -5 -13z"/>
<path d="M3750 2414 c0 -5 16 -20 35 -33 35 -24 35 -24 18 -50 -16 -25 -16
-26 3 -11 10 8 23 21 27 28 4 6 16 12 25 13 9 1 -3 7 -27 15 -24 7 -52 21 -62
30 -11 10 -19 13 -19 8z"/>
<path d="M4025 2410 c-13 -6 -15 -9 -5 -9 8 0 22 4 30 9 18 12 2 12 -25 0z"/>
<path d="M3908 2383 c-10 -2 -18 -10 -18 -17 0 -7 -11 -19 -25 -26 -27 -14
-35 -36 -10 -26 10 3 15 -1 15 -14 0 -25 -17 -35 -24 -13 -2 10 -4 -4 -3 -31
1 -31 -3 -51 -11 -54 -16 -5 -15 -22 2 -22 26 0 36 -141 12 -173 -7 -9 -28
-22 -46 -28 -29 -11 -30 -13 -14 -22 13 -7 19 -7 22 1 2 7 10 12 17 12 17 0
45 44 45 70 0 11 4 20 9 20 13 0 67 -52 73 -70 4 -12 9 -13 29 -3 13 7 52 17
87 22 54 9 148 48 138 58 -1 2 -23 -6 -49 -17 -52 -23 -143 -35 -152 -20 -4 6
5 10 19 10 16 0 26 6 26 15 0 8 -4 15 -9 15 -16 0 -61 -41 -61 -56 0 -8 -4
-14 -10 -14 -13 0 -13 17 1 26 6 3 8 17 5 30 -4 14 -2 33 4 44 13 24 45 28 36
5 -4 -12 3 -11 35 6 28 14 45 17 51 11 13 -13 2 -31 -26 -42 -15 -6 -16 -9 -5
-9 9 -1 27 7 40 18 21 17 22 20 7 35 -9 9 -23 16 -31 16 -8 0 -20 7 -27 15
-20 25 -52 17 -92 -22 -41 -40 -49 -38 -88 17 -16 23 -18 34 -10 86 17 106 17
107 68 134 33 17 34 19 12 18 -14 0 -33 -2 -42 -5z m139 -239 c2 -6 -9 -11
-27 -12 -30 -1 -41 12 -17 21 18 8 40 4 44 -9z m-146 -40 c7 -9 22 -14 36 -11
20 4 23 0 23 -24 0 -20 -5 -29 -16 -29 -18 0 -74 53 -74 69 0 16 16 13 31 -5z"/>
<path d="M3363 2360 c16 -5 35 -14 43 -21 10 -8 14 -8 14 0 0 17 38 13 48 -5
7 -12 11 -13 17 -4 12 20 -6 27 -80 33 -47 4 -61 3 -42 -3z"/>
<path d="M3638 2353 c7 -3 16 -2 19 1 4 3 -2 6 -13 5 -11 0 -14 -3 -6 -6z"/>
<path d="M3420 2309 c0 -5 5 -7 10 -4 6 3 10 8 10 11 0 2 -4 4 -10 4 -5 0 -10
-5 -10 -11z"/>
<path d="M3400 2275 c-7 -9 -11 -17 -9 -20 3 -2 10 5 17 15 14 24 10 26 -8 5z"/>
<path d="M2901 2233 c1 -27 3 -40 6 -30 7 28 23 19 23 -14 0 -17 -4 -28 -10
-24 -6 3 -7 -1 -4 -9 9 -24 23 -19 30 9 8 32 -16 115 -33 115 -9 0 -13 -15
-12 -47z"/>
<path d="M2798 2211 c-19 -19 -36 -101 -21 -101 24 0 80 91 68 111 -9 14 -28
10 -47 -10z m22 -39 c0 -15 -28 -47 -35 -40 -11 11 5 48 21 48 8 0 14 -4 14
-8z"/>
<path d="M3602 2067 c-2 -14 -10 -17 -37 -15 -19 1 -37 -1 -41 -5 -4 -4 9 -7
30 -7 30 0 38 -5 46 -24 7 -18 19 -27 47 -31 21 -4 50 -15 65 -26 15 -11 29
-15 33 -9 6 10 -56 40 -84 40 -29 0 -50 23 -54 60 -2 19 -5 27 -5 17z"/>
<path d="M3320 1969 c0 -5 5 -7 10 -4 6 3 10 8 10 11 0 2 -4 4 -10 4 -5 0 -10
-5 -10 -11z"/>
<path d="M4527 1963 c-13 -12 -7 -33 9 -33 13 0 14 3 5 14 -9 11 -9 15 1 19 7
3 8 6 2 6 -6 1 -14 -2 -17 -6z"/>
<path d="M4561 1954 c0 -11 3 -14 6 -6 3 7 2 16 -1 19 -3 4 -6 -2 -5 -13z"/>
<path d="M4696 1928 c5 -8 0 -9 -14 -6 -27 7 -32 0 -21 -29 8 -23 31 -22 73 3
26 16 14 44 -19 44 -17 0 -24 -4 -19 -12z m29 -7 c3 -5 1 -12 -5 -16 -5 -3
-10 1 -10 9 0 18 6 21 15 7z m-30 -21 c-3 -5 -10 -10 -16 -10 -5 0 -9 5 -9 10
0 6 7 10 16 10 8 0 12 -4 9 -10z"/>
<path d="M3750 1925 c0 -6 12 -23 26 -38 19 -21 31 -26 47 -21 12 3 24 8 26
10 6 6 -31 44 -42 44 -6 0 -2 -9 8 -20 18 -19 17 -20 -3 -20 -11 0 -30 12 -41
28 -11 15 -21 22 -21 17z"/>
</g>
</svg>
